<svg width="70" height="70" viewBox="0 0 70 70" fill="none" xmlns="http://www.w3.org/2000/svg">
<path d="M16.2789 13.2385H3V0.0090332H11.0186H16.2626L16.2789 13.2385Z" fill="#F8FEFF"/>
<path d="M25.295 31.6172H25.2564C25.0325 31.6395 24.807 31.6395 24.583 31.6172H25.295Z" fill="#F8FEFF"/>
<path d="M66.0519 19.8569H22.8862V6.61788H23.5888L66.0839 6.59863C66.1577 9.63973 66.1321 16.8223 66.0519 19.8569Z" fill="#F8FEFF"/>
<path d="M66.0519 19.8569H22.8862V6.61788H23.5888L66.0839 6.59863C66.1577 9.63973 66.1321 16.8223 66.0519 19.8569Z" fill="#F8FEFF"/>
<path d="M66.1095 70H9.61694V19.8572H22.8959V31.6174H24.5829C24.8069 31.6397 25.0324 31.6397 25.2563 31.6174H25.2949H61.5389V44.8821H60.6152C60.3682 44.8821 60.1212 44.8821 59.8838 44.8821H22.8862V56.7514H66.1095C66.1138 61.1676 66.1138 65.5838 66.1095 70Z" fill="#F8FEFF"/>
<path d="M16.2789 0V13.2391H3V0.00963313H11.0186L16.2789 0Z" fill="#37A9E7"/>
</svg>
