<svg width="153" height="40" viewBox="0 0 153 40" fill="none" xmlns="http://www.w3.org/2000/svg">
<path d="M4.51878 4.50502H0V0.00308228H2.7287H4.51323L4.51878 4.50502Z" fill="#F8FEFF"/>
<path d="M7.58688 10.7592H7.57377C7.49756 10.7668 7.42082 10.7668 7.3446 10.7592H7.58688Z" fill="#F8FEFF"/>
<path d="M21.4564 6.75728H6.76721V2.25206H7.00629L21.4673 2.24551C21.4924 3.28039 21.4837 5.72458 21.4564 6.75728Z" fill="#F8FEFF"/>
<path d="M43.3384 2.24663C43.3798 5.18206 43.393 20.7653 43.358 23.8186C42.3255 23.8382 39.898 23.8459 38.872 23.8306V18.5754L38.8382 18.5427L38.8098 18.3757L38.597 18.2992L28.6514 8.35328L28.6449 9.64142C28.6449 9.89578 28.6449 10.1501 28.6449 10.4056V23.8208C27.5992 23.8426 25.1881 23.8492 24.1479 23.8306V2.26192H28.9636L38.872 12.1729V2.26519C39.898 2.24008 42.2971 2.23026 43.3384 2.24663Z" fill="#F8FEFF"/>
<path d="M55.1132 36.8539V32.4535H46.9675V39.9956H55.1089V38.1671H49.2356V36.8572L55.1132 36.8539ZM49.2367 33.8191H52.8211V35.4566H49.2367V33.8191Z" fill="#F8FEFF"/>
<path d="M59.8338 28.9449H57.5745V39.9924H59.8338V28.9449Z" fill="#F8FEFF"/>
<path d="M65.2367 23.8208H46.0266V2.2619H65.2443C65.2443 2.65053 65.2443 3.04133 65.2443 3.4245V3.69195C65.2443 3.97214 65.2443 4.25269 65.2443 4.53361C65.2443 5.18059 65.2443 5.82903 65.2443 6.47892V9.68289H60.7529V9.56608C60.7529 9.45692 60.7529 9.34775 60.7529 9.24405C60.7529 9.02572 60.7529 8.80739 60.7529 8.58906V6.77694H51.0933H50.8892L50.7538 6.90029C50.7287 6.92087 50.7053 6.94351 50.684 6.96797C50.5888 7.07032 50.5358 7.20483 50.5355 7.34459C50.5355 11.0911 50.5326 14.8391 50.5268 18.5885C50.5268 18.642 50.5268 18.6922 50.5333 18.7381L50.565 19.1835L50.9601 19.2708C51.2636 19.3352 59.9103 19.3461 60.3043 19.2806L60.754 19.2053V16.3037C61.7931 16.2797 64.1954 16.271 65.2291 16.2906C65.2596 17.7643 65.2629 22.2815 65.2367 23.8208Z" fill="#F8FEFF"/>
<path d="M64.2218 38.1628V36.8528H70.0939V32.4556H61.946V39.9934H70.0961V38.1628H64.2218ZM64.2218 33.8169H67.8149V35.4544H64.2218V33.8169Z" fill="#F8FEFF"/>
<path d="M74.4729 38.166H79.2329V39.9934H72.1982V32.4556H79.2318V34.27H74.4729V38.166Z" fill="#F8FEFF"/>
<path d="M84.8997 38.1715H86.5544V39.9913H82.6054V34.2798H80.9431V32.4436H82.6011V30.1719H84.8757V32.4327H86.5501V34.27H84.8997V38.1715Z" fill="#F8FEFF"/>
<path d="M88.3936 32.4524H94.8551V35.616H92.5947V34.2918H90.6551V40H88.3936V32.4524Z" fill="#F8FEFF"/>
<path d="M99.052 32.4556H96.8025V39.9934H99.052V32.4556Z" fill="#F8FEFF"/>
<path d="M99.0532 28.4297H96.8091V30.5027H99.0532V28.4297Z" fill="#F8FEFF"/>
<path d="M103.333 38.166H108.091V39.9934H101.057V32.4556H108.09V34.27H103.333V38.166Z" fill="#F8FEFF"/>
<path d="M109.022 19.321C109.022 20.8224 109.022 22.3234 109.022 23.8241H89.7864V2.24664H94.3117C99.211 2.24664 104.111 2.24664 109.013 2.24664C109.031 3.2717 109.026 5.71043 109.002 6.75186H94.3117V7.70922C94.2887 8.33583 94.2942 9.31394 94.3117 9.88269V10.756H107.464V15.2689H94.3117V19.3167H109.019L109.022 19.321Z" fill="#F8FEFF"/>
<path d="M130.884 10.7592C130.931 12.9054 130.946 21.5207 130.908 23.8229L113.131 23.8317H111.691V17.6093C112.723 17.5853 115.13 17.5831 116.181 17.6017V19.1758L116.604 19.2675C116.909 19.333 125.554 19.3472 125.954 19.2828L126.406 19.2097V15.2797H111.691V2.2619H130.893C130.918 3.57187 130.926 7.09897 130.904 8.43951H126.429V6.77475H116.375L116.256 7.15355C116.157 7.48105 116.168 9.87066 116.215 10.28L116.268 10.7527L116.743 10.7582C116.996 10.7582 117.251 10.7582 117.507 10.7582H130.885L130.884 10.7592Z" fill="#F8FEFF"/>
<path d="M152.773 2.2597H133.569C133.569 9.44636 133.567 16.6345 133.562 23.824H152.786C152.821 20.738 152.808 5.3174 152.773 2.2597ZM148.305 19.1562L147.902 19.2653C147.831 19.2839 147.684 19.3221 143.282 19.3319H142.098C139.938 19.3319 138.748 19.3199 138.559 19.2981L138.087 19.2424V6.77365H148.268V7.17428C148.283 7.21765 148.292 7.26282 148.294 7.30855C148.301 7.38934 148.305 7.46139 148.305 7.53453V19.1562Z" fill="#F8FEFF"/>
<path d="M55.1132 36.8539V32.4535H46.9675V39.9956H55.1089V38.1671H49.2356V36.8572L55.1132 36.8539ZM49.2367 33.8191H52.8211V35.4566H49.2367V33.8191Z" fill="#37A9E7"/>
<path d="M64.2218 38.1628V36.8528H70.0939V32.4556H61.946V39.9934H70.0961V38.1628H64.2218ZM64.2218 33.8169H67.8149V35.4544H64.2218V33.8169Z" fill="#37A9E7"/>
<path d="M79.2329 38.166V39.9934H72.1982V32.4556H79.2318V34.27H74.4729V38.166H79.2329Z" fill="#37A9E7"/>
<path d="M108.091 38.166V39.9934H101.057V32.4556H108.09V34.27H103.333V38.166H108.091Z" fill="#37A9E7"/>
<path d="M86.5544 38.1715V39.9913H82.6054V34.2798H80.9431V32.4436H82.6011V30.1719H84.8757V32.4327H86.5501V34.27H84.8997V38.1715H86.5544Z" fill="#37A9E7"/>
<path d="M94.8551 32.4524V35.616H92.5947V34.2918H90.6551V40H88.3936V32.4524H94.8551Z" fill="#37A9E7"/>
<path d="M59.8338 28.9449H57.5745V39.9924H59.8338V28.9449Z" fill="#37A9E7"/>
<path d="M99.052 32.4556H96.8025V39.9934H99.052V32.4556Z" fill="#37A9E7"/>
<path d="M99.0532 28.4297H96.8091V30.5027H99.0532V28.4297Z" fill="#37A9E7"/>
<path d="M130.908 23.8208L113.131 23.8295H111.691V17.6071C112.723 17.5831 115.13 17.5809 116.181 17.5995V19.1736L116.604 19.2653C116.909 19.3308 125.554 19.345 125.954 19.2806L126.406 19.2075V15.2776H111.691V2.2619H130.893C130.918 3.57187 130.925 7.09897 130.904 8.43951H126.429V6.77475H116.375L116.256 7.15355C116.157 7.48105 116.168 9.87066 116.215 10.28L116.268 10.7527L116.743 10.7582C116.996 10.7582 117.251 10.7582 117.507 10.7582H130.885C130.931 12.9043 130.946 21.5207 130.908 23.8208Z" fill="#F8FEFF"/>
<path d="M21.4564 6.75728H6.76721V2.25206H7.00629L21.4673 2.24551C21.4924 3.28039 21.4837 5.72458 21.4564 6.75728Z" fill="#F8FEFF"/>
<path d="M21.476 23.8208H2.25171V6.75729H6.77049V10.7593H7.34458C7.4208 10.7668 7.49753 10.7668 7.57375 10.7593H7.58686H19.9206V15.2732H19.6063C19.5222 15.2732 19.4382 15.2732 19.3574 15.2732H6.76718V19.3123H21.476C21.4774 20.8151 21.4774 22.3179 21.476 23.8208Z" fill="#F8FEFF"/>
<path d="M109.022 19.321C109.022 20.8224 109.022 22.3234 109.022 23.8241H89.7864V2.24664H109.013C109.031 3.2717 109.026 5.71043 109.002 6.75186H94.3117V10.756H107.464V15.2689H94.3117V19.3167L109.022 19.321Z" fill="#F8FEFF"/>
<path d="M152.773 2.2597H133.569C133.569 9.44636 133.567 16.6345 133.562 23.824H152.786C152.821 20.738 152.808 5.3174 152.773 2.2597ZM148.305 19.1562L147.902 19.2653C147.831 19.2839 147.684 19.3221 143.282 19.3319H142.098C139.938 19.3319 138.748 19.3199 138.559 19.2981L138.087 19.2424V6.77365H148.268V7.17428C148.283 7.21765 148.292 7.26282 148.294 7.30855C148.301 7.38934 148.305 7.46139 148.305 7.53453V19.1562Z" fill="#F8FEFF"/>
<path d="M83.4919 17.094V17.082L87.1364 13.448C87.1364 9.72036 87.1364 5.98949 87.1364 2.25534H67.911C67.8837 5.32395 67.8968 20.8799 67.9295 23.8317H68.0278C69.4904 23.8317 70.9522 23.8284 72.4134 23.8218V21.6473C72.4134 21.1528 72.4134 20.6572 72.4134 20.1561V19.6212H79.0714L82.6569 23.2029V23.8207H87.1233V21.3242L83.1939 17.3942L83.4919 17.094ZM82.4768 11.745C81.9355 12.2843 81.3959 12.8232 80.8582 13.3617L79.078 15.1422H72.4538L72.4418 6.77802H82.598L82.6373 11.5812L82.4768 11.745Z" fill="#F8FEFF"/>
<path d="M43.358 23.8208C42.3255 23.8404 39.898 23.8481 38.872 23.8328V18.5776L38.8382 18.5449L38.8098 18.3778L38.597 18.3014L28.6514 8.35547L28.6449 9.64361C28.6449 9.89796 28.6449 10.1523 28.6449 10.4078V23.8208C27.5992 23.8426 25.1881 23.8492 24.1479 23.8306V2.26192H28.9636L38.872 12.1729V2.26519C39.9024 2.24008 42.3015 2.23026 43.3471 2.24663C43.3798 5.18206 43.393 20.7642 43.358 23.8208Z" fill="#F8FEFF"/>
<path d="M65.2367 23.8208H46.0266V2.2619H65.2443C65.2443 2.65053 65.2443 3.04133 65.2443 3.4245V3.69195C65.2443 3.97214 65.2443 4.25269 65.2443 4.53361C65.2443 5.18059 65.2443 5.82903 65.2443 6.47892V9.68289H60.7529V9.56608C60.7529 9.45692 60.7529 9.34775 60.7529 9.24405C60.7529 9.02572 60.7529 8.80739 60.7529 8.58906V6.77694H51.0933H50.8892L50.7538 6.90029C50.7287 6.92087 50.7053 6.94351 50.684 6.96797C50.5888 7.07032 50.5358 7.20483 50.5355 7.34459C50.5355 11.0911 50.5326 14.8391 50.5268 18.5885C50.5268 18.642 50.5268 18.6922 50.5333 18.7381L50.565 19.1835L50.9601 19.2708C51.2636 19.3352 59.9103 19.3461 60.3043 19.2806L60.754 19.2053V16.3037C61.7931 16.2797 64.1954 16.271 65.2291 16.2906C65.2596 17.7643 65.2629 22.2815 65.2367 23.8208Z" fill="#F8FEFF"/>
<path d="M4.51878 0V4.50521H0V0.00327813H2.7287L4.51878 0Z" fill="#37A9E7"/>
</svg>
