<svg width="222" height="59" viewBox="0 0 222 59" fill="none" xmlns="http://www.w3.org/2000/svg">
<path d="M6.56498 6.54441H0V0.00390625H3.96432H6.55692L6.56498 6.54441Z" fill="#262626"/>
<path d="M11.0224 15.6309H11.0034C10.8926 15.6419 10.7811 15.6419 10.6704 15.6309H11.0224Z" fill="#262626"/>
<path d="M31.1723 9.81699H9.83154V3.27172H10.1789L31.1881 3.26221C31.2245 4.7657 31.2119 8.31667 31.1723 9.81699Z" fill="#262626"/>
<path d="M62.963 3.26462C63.0233 7.52927 63.0423 30.1689 62.9916 34.6048C61.4915 34.6334 57.9648 34.6445 56.4742 34.6223V26.9874L56.4251 26.9399L56.3838 26.6972L56.0746 26.5862L41.6254 12.1365L41.616 14.0079C41.616 14.3775 41.616 14.747 41.616 15.1181V34.608C40.0969 34.6397 36.594 34.6492 35.0828 34.6223V3.28683H42.079L56.4742 17.6858V3.29158C57.9648 3.2551 61.4502 3.24083 62.963 3.26462Z" fill="#262626"/>
<path d="M80.0699 53.5424V47.1494H68.2356V58.1068H80.0635V55.4504H71.5307V53.5472L80.0699 53.5424ZM71.5323 49.1335H76.7398V51.5124H71.5323V49.1335Z" fill="#262626"/>
<path d="M86.928 42.0518H83.6455V58.1017H86.928V42.0518Z" fill="#262626"/>
<path d="M94.7775 34.6068H66.8687V3.28564H94.7885C94.7885 3.85025 94.7885 4.41802 94.7885 4.97469V5.36325C94.7885 5.77031 94.7885 6.17791 94.7885 6.58603C94.7885 7.52598 94.7885 8.46804 94.7885 9.41222V14.067H88.2633V13.8973C88.2633 13.7387 88.2633 13.5801 88.2633 13.4295C88.2633 13.1123 88.2633 12.7951 88.2633 12.4779V9.84518H74.2296H73.9331L73.7364 10.0244C73.6999 10.0543 73.666 10.0872 73.6349 10.1227C73.4967 10.2714 73.4197 10.4668 73.4193 10.6699C73.4193 16.1129 73.4151 21.558 73.4066 27.0053C73.4066 27.083 73.4066 27.156 73.4161 27.2226L73.4621 27.8696L74.0362 27.9965C74.477 28.0901 87.0391 28.1059 87.6116 28.0108L88.2649 27.9014V23.6859C89.7745 23.651 93.2647 23.6383 94.7664 23.6668C94.8108 25.8079 94.8155 32.3706 94.7775 34.6068Z" fill="#262626"/>
<path d="M93.3026 55.4438V53.5406H101.834V47.1523H89.9963V58.1034H101.837V55.4438H93.3026ZM93.3026 49.13H98.5228V51.509H93.3026V49.13Z" fill="#262626"/>
<path d="M108.196 55.4485H115.111V58.1034H104.891V47.1523H115.11V49.7882H108.196V55.4485Z" fill="#262626"/>
<path d="M123.344 55.4564H125.748V58.1002H120.011V49.8025H117.596V47.1349H120.005V43.8345H123.309V47.119H125.742V49.7882H123.344V55.4564Z" fill="#262626"/>
<path d="M128.42 47.1475H137.808V51.7436H134.524V49.8198H131.706V58.1128H128.42V47.1475Z" fill="#262626"/>
<path d="M143.905 47.1523H140.637V58.1034H143.905V47.1523Z" fill="#262626"/>
<path d="M143.907 41.3037H140.646V44.3155H143.907V41.3037Z" fill="#262626"/>
<path d="M150.124 55.4485H157.036V58.1034H146.818V47.1523H157.035V49.7882H150.124V55.4485Z" fill="#262626"/>
<path d="M158.389 28.0697C158.389 30.2509 158.389 32.4316 158.389 34.6118H130.444V3.26367H137.018C144.136 3.26367 151.255 3.26367 158.376 3.26367C158.403 4.75289 158.395 8.29593 158.36 9.80894H137.018V11.1998C136.985 12.1102 136.993 13.5312 137.018 14.3575V15.6263H156.126V22.1826H137.018V28.0634H158.386L158.389 28.0697Z" fill="#262626"/>
<path d="M190.151 15.6308C190.219 18.7488 190.241 31.2652 190.186 34.61L164.359 34.6227H162.268V25.5827C163.766 25.5478 167.263 25.5446 168.79 25.5716V27.8585L169.405 27.9918C169.847 28.0869 182.408 28.1075 182.988 28.014L183.645 27.9077V22.1982H162.268V3.28564H190.164C190.2 5.1888 190.211 10.313 190.18 12.2606H183.678V9.84201H169.072L168.899 10.3923C168.755 10.8681 168.771 14.3398 168.839 14.9345L168.917 15.6213L169.606 15.6292C169.974 15.6292 170.345 15.6292 170.716 15.6292H190.153L190.151 15.6308Z" fill="#262626"/>
<path d="M221.951 3.2832H194.052C194.052 13.7241 194.049 24.1672 194.042 34.6123H221.97C222.021 30.1288 222.002 7.72548 221.951 3.2832ZM215.461 27.8307L214.876 27.9893C214.773 28.0163 214.559 28.0718 208.163 28.0861H206.443C203.305 28.0861 201.576 28.0686 201.302 28.0369L200.615 27.956V9.84116H215.407V10.4232C215.428 10.4862 215.441 10.5518 215.445 10.6183C215.455 10.7356 215.461 10.8403 215.461 10.9466V27.8307Z" fill="#262626"/>
<path d="M80.0699 53.5424V47.1494H68.2356V58.1068H80.0635V55.4504H71.5307V53.5472L80.0699 53.5424ZM71.5323 49.1335H76.7398V51.5124H71.5323V49.1335Z" fill="#37A9E7"/>
<path d="M93.3026 55.4438V53.5406H101.834V47.1523H89.9963V58.1034H101.837V55.4438H93.3026ZM93.3026 49.13H98.5228V51.509H93.3026V49.13Z" fill="#37A9E7"/>
<path d="M115.111 55.4485V58.1034H104.891V47.1523H115.11V49.7882H108.196V55.4485H115.111Z" fill="#37A9E7"/>
<path d="M157.036 55.4485V58.1034H146.818V47.1523H157.035V49.7882H150.124V55.4485H157.036Z" fill="#37A9E7"/>
<path d="M125.748 55.4564V58.1002H120.011V49.8025H117.596V47.1349H120.005V43.8345H123.309V47.119H125.742V49.7882H123.344V55.4564H125.748Z" fill="#37A9E7"/>
<path d="M137.808 47.1475V51.7436H134.524V49.8198H131.706V58.1128H128.42V47.1475H137.808Z" fill="#37A9E7"/>
<path d="M86.928 42.0518H83.6455V58.1017H86.928V42.0518Z" fill="#37A9E7"/>
<path d="M143.905 47.1523H140.637V58.1034H143.905V47.1523Z" fill="#37A9E7"/>
<path d="M143.907 41.3037H140.646V44.3155H143.907V41.3037Z" fill="#37A9E7"/>
<path d="M190.186 34.6068L164.359 34.6195H162.268V25.5795C163.766 25.5446 167.263 25.5415 168.79 25.5684V27.8554L169.405 27.9886C169.847 28.0838 182.408 28.1044 182.988 28.0108L183.645 27.9045V22.1951H162.268V3.28564H190.164C190.2 5.1888 190.211 10.313 190.18 12.2606H183.678V9.84201H169.072L168.899 10.3923C168.755 10.8681 168.771 14.3398 168.839 14.9345L168.917 15.6213L169.606 15.6292C169.974 15.6292 170.345 15.6292 170.716 15.6292H190.153C190.219 18.7472 190.241 31.2652 190.186 34.6068Z" fill="#262626"/>
<path d="M31.1723 9.81699H9.83154V3.27172H10.1789L31.1881 3.26221C31.2245 4.7657 31.2119 8.31667 31.1723 9.81699Z" fill="#262626"/>
<path d="M31.2008 34.6071H3.27136V9.81689H9.83634V15.631H10.6704C10.7811 15.642 10.8926 15.642 11.0033 15.631H11.0224H28.9411V22.189H28.4844C28.3623 22.189 28.2402 22.189 28.1228 22.189H9.83154V28.0571H31.2008C31.2029 30.2404 31.2029 32.4237 31.2008 34.6071Z" fill="#262626"/>
<path d="M158.389 28.0697C158.389 30.2509 158.389 32.4316 158.389 34.6118H130.444V3.26367H158.376C158.403 4.75289 158.395 8.29593 158.36 9.80894H137.018V15.6263H156.126V22.1826H137.018V28.0634L158.389 28.0697Z" fill="#262626"/>
<path d="M221.951 3.2832H194.052C194.052 13.7241 194.049 24.1672 194.042 34.6123H221.97C222.021 30.1288 222.002 7.72548 221.951 3.2832ZM215.461 27.8307L214.876 27.9893C214.773 28.0163 214.559 28.0718 208.163 28.0861H206.443C203.305 28.0861 201.576 28.0686 201.302 28.0369L200.615 27.956V9.84116H215.407V10.4232C215.428 10.4862 215.441 10.5518 215.445 10.6183C215.455 10.7356 215.461 10.8403 215.461 10.9466V27.8307Z" fill="#262626"/>
<path d="M121.299 24.8348V24.8174L126.594 19.5377C126.594 14.1222 126.594 8.7019 126.594 3.27686H98.6626C98.6229 7.735 98.6419 30.335 98.6895 34.6234H98.8322C100.957 34.6234 103.081 34.6186 105.204 34.6091V31.4499C105.204 30.7314 105.204 30.0114 105.204 29.2835V28.5063H114.877L120.086 33.7099V34.6075H126.575V30.9804L120.866 25.271L121.299 24.8348ZM119.824 17.0636C119.038 17.8471 118.254 18.63 117.472 19.4124L114.886 21.9991H105.262L105.245 9.8475H120L120.057 16.8257L119.824 17.0636Z" fill="#262626"/>
<path d="M62.9916 34.608C61.4915 34.6365 57.9648 34.6476 56.4742 34.6254V26.9906L56.4251 26.943L56.3838 26.7004L56.0746 26.5894L41.6254 12.1397L41.616 14.0111C41.616 14.3806 41.616 14.7502 41.616 15.1213V34.608C40.0969 34.6397 36.594 34.6492 35.0828 34.6223V3.28683H42.079L56.4742 17.6858V3.29158C57.9711 3.2551 61.4566 3.24083 62.9757 3.26462C63.0233 7.52927 63.0423 30.1673 62.9916 34.608Z" fill="#262626"/>
<path d="M94.7775 34.6068H66.8687V3.28564H94.7885C94.7885 3.85025 94.7885 4.41802 94.7885 4.97469V5.36325C94.7885 5.77031 94.7885 6.17791 94.7885 6.58603C94.7885 7.52598 94.7885 8.46804 94.7885 9.41222V14.067H88.2633V13.8973C88.2633 13.7387 88.2633 13.5801 88.2633 13.4295C88.2633 13.1123 88.2633 12.7951 88.2633 12.4779V9.84518H74.2296H73.9331L73.7364 10.0244C73.6999 10.0543 73.666 10.0872 73.6349 10.1227C73.4967 10.2714 73.4197 10.4668 73.4193 10.6699C73.4193 16.1129 73.4151 21.558 73.4066 27.0053C73.4066 27.083 73.4066 27.156 73.4161 27.2226L73.4621 27.8696L74.0362 27.9965C74.477 28.0901 87.0391 28.1059 87.6116 28.0108L88.2649 27.9014V23.6859C89.7745 23.651 93.2647 23.6383 94.7664 23.6668C94.8108 25.8079 94.8155 32.3706 94.7775 34.6068Z" fill="#262626"/>
<path d="M6.56498 0V6.54527H0V0.00476253H3.96432L6.56498 0Z" fill="#37A9E7"/>
</svg>
